<mxfile host="app.diagrams.net" modified="2024-04-14T14:39:30.357Z" agent="Mozilla/5.0 (Windows NT 10.0; Win64; x64) AppleWebKit/537.36 (KHTML, like Gecko) Chrome/123.0.0.0 Safari/537.36 Edg/123.0.0.0" version="24.2.1" etag="t9bpSB2m4Kz9m5uJtTbx" type="github">
  <diagram name="第 1 页" id="9qGFkTmmCtSteFMBYOmz">
    <mxGraphModel>
      <root>
        <mxCell id="0" />
        <mxCell id="1" parent="0" />
      </root>
    </mxGraphModel>
  </diagram>
</mxfile>
